<?xml version="1.0" encoding="UTF-8"?>
<svg id="Layer_1" xmlns="http://www.w3.org/2000/svg" version="1.1" viewBox="0 0 128.84 28.27">
  <!-- Generator: Adobe Illustrator 29.1.0, SVG Export Plug-In . SVG Version: 2.1.0 Build 142)  -->
  <g>
    <path d="M14.6,20.5c.64,0,1.24-.06,1.81-.17.57-.12,1.1-.28,1.58-.5.48-.22.96-.46,1.42-.74.04.16.09.32.14.5s.1.35.16.52c.06.17.12.34.17.51.06.17.12.34.17.51-.39.2-.79.39-1.2.56s-.85.32-1.31.44c-.46.12-.94.21-1.44.27-.5.06-1.04.09-1.62.09-1.01,0-1.96-.12-2.85-.35-.89-.23-1.68-.58-2.36-1.04-.69-.46-1.28-1.04-1.78-1.73s-.87-1.48-1.13-2.37c-.25-.89-.38-1.89-.38-3s.14-2.16.41-3.05c.27-.89.66-1.66,1.16-2.31.5-.65,1.1-1.19,1.81-1.62.71-.43,1.5-.75,2.36-.96.87-.22,1.8-.33,2.8-.33,1.07,0,2.04.1,2.92.29.87.2,1.67.48,2.39.86-.07.16-.13.33-.17.5s-.09.35-.14.54-.1.36-.16.52c-.06.16-.11.32-.15.5-.68-.4-1.39-.71-2.12-.92-.74-.21-1.58-.31-2.51-.31s-1.85.13-2.63.39c-.79.26-1.46.65-2,1.16-.55.51-.97,1.17-1.27,1.96-.3.79-.44,1.72-.44,2.77s.15,1.99.47,2.81c.31.82.76,1.5,1.33,2.05.58.55,1.26.96,2.05,1.24.79.27,1.63.41,2.53.41Z"/>
    <path d="M36.7,20.23c-.31-.78-.64-1.61-.99-2.52-.35-.9-.7-1.83-1.07-2.78-.37-.96-.72-1.89-1.05-2.8-.34-.91-.65-1.76-.95-2.57-.29-.8-.55-1.51-.76-2.13-.22-.62-.39-1.1-.52-1.43h-4.86c-.12.33-.28.8-.5,1.42-.21.61-.47,1.33-.77,2.14-.29.82-.62,1.69-.96,2.62-.35.92-.7,1.86-1.06,2.82-.37.97-.71,1.89-1.03,2.79-.33.9-.64,1.72-.95,2.48-.3.76-.57,1.42-.82,1.98h3.47c.1-.34.25-.83.45-1.46.21-.63.45-1.34.73-2.13.02-.06.04-.12.06-.18.44-.01.87-.02,1.3-.02h4.84c.44,0,.89.01,1.35.02h.03c.12.36.24.7.34,1.02.2.62.38,1.17.53,1.65.15.48.25.84.29,1.1h3.71c-.23-.57-.5-1.25-.81-2.02ZM31.37,16.11c-.46.01-.9.01-1.34.01h-3.74c-.12,0-.24,0-.35-.01.29-.86.59-1.72.9-2.6.31-.89.58-1.7.83-2.44.23-.68.43-1.27.61-1.77.17-.5.32-.92.45-1.29.05-.13.09-.26.14-.38.04.12.08.24.13.38.13.37.27.78.44,1.26.16.48.37,1.04.61,1.69.22.64.46,1.32.71,2.06s.51,1.49.78,2.24c.1.28.2.56.29.84-.15,0-.31.01-.46.01Z"/>
    <path d="M54.06,18.71c0,1.29.03,2.47.07,3.54h-5.41c-.12-.28-.3-.63-.53-1.04-.24-.4-.51-.85-.8-1.35-.29-.5-.59-1.02-.92-1.55-.32-.54-.66-1.08-1.01-1.63-.34-.55-.7-1.07-1.06-1.56-.24-.55-.5-1.11-.76-1.69-.25-.56-.46-1.1-.64-1.64h-.05c0,.07.01.12.01.18.05.67.1,1.32.14,1.95.05.63.08,1.24.11,1.83,0,.81.01,1.57.02,2.28.02.71.02,1.33.01,1.87v1.41c.01.4.02.71.04.94h-4.66c0-1.08.02-2.27.03-3.57s.01-2.82.01-4.55v-3.18c0-.96,0-1.85-.01-2.68-.01-.82-.02-1.58-.03-2.27h5.87c.09.17.22.41.39.7.17.3.38.65.62,1.05.24.41.49.83.75,1.27.26.44.52.9.79,1.38.26.47.54.95.83,1.43.29.48.56.94.82,1.39.22.44.43.9.63,1.37.2.46.38.96.56,1.47h.04c0-.05-.01-.09-.01-.13-.06-.61-.1-1.19-.13-1.75-.03-.56-.05-1.09-.05-1.61s0-.99-.01-1.48c0-.49-.01-.98-.02-1.48s-.02-.97-.03-1.41-.03-.85-.05-1.23c-.03-.37-.05-.7-.08-.97h4.62c-.02.4-.03.89-.05,1.45-.01.56-.02,1.2-.03,1.9s-.01,1.45-.02,2.25c-.01.8-.01,1.64-.01,2.5,0,1.78,0,3.32.01,4.61Z"/>
    <path d="M71.04,6c-.25.46-.53,1.03-.87,1.71-.33.68-.67,1.41-1.01,2.2-.35.79-.7,1.58-1.06,2.37-.35.8-.68,1.56-.99,2.29-.31.73-.58,1.38-.82,1.95-.14.35-.26.65-.34.88v1.18c0,.6.01,1.14.03,1.61.02.48.04.9.05,1.27.02.37.03.64.03.82-.29-.02-.61-.03-.96-.04-.34,0-.69-.01-1.03-.01h-2.01c-.36,0-.71.01-1.07.01-.35.01-.66.02-.92.04.02-.18.03-.45.05-.82,0-.37.02-.79.03-1.28.01-.48.01-1.02.02-1.62.01-.44.01-.91.01-1.4-.08-.19-.17-.42-.27-.67-.24-.58-.52-1.23-.84-1.96-.33-.73-.67-1.51-1.02-2.32-.36-.82-.71-1.62-1.06-2.4-.36-.78-.7-1.5-1.03-2.18-.34-.67-.62-1.21-.85-1.63h5.79c.04.17.11.39.19.66.09.27.19.58.29.93.11.36.22.72.34,1.11.12.38.24.77.38,1.18.14.4.27.8.4,1.19.12.45.24.89.37,1.31.13.43.25.82.35,1.18.01.05.03.1.04.15h.18s.02-.07.03-.1c.09-.37.2-.76.32-1.17.12-.42.25-.86.38-1.33.14-.36.28-.75.41-1.17.13-.42.27-.81.4-1.19.14-.37.27-.75.39-1.13.13-.37.23-.7.32-.97.08-.28.14-.49.17-.65h5.18Z"/>
    <path d="M86.52,13.95c0,1.13-.12,2.14-.37,3.03s-.6,1.69-1.05,2.38-1.01,1.28-1.66,1.76c-.65.48-1.39.83-2.22,1.06-.83.23-1.74.35-2.72.35s-1.91-.12-2.73-.35c-.82-.23-1.56-.59-2.2-1.06-.64-.48-1.19-1.06-1.65-1.76-.46-.69-.81-1.49-1.05-2.38s-.37-1.91-.37-3.03.13-2.07.38-2.96c.25-.89.61-1.66,1.08-2.32.47-.66,1.03-1.21,1.69-1.66.66-.45,1.39-.78,2.21-.99.82-.21,1.69-.31,2.63-.31,1.17,0,2.25.17,3.24.5.99.33,1.84.85,2.55,1.54.71.69,1.26,1.55,1.65,2.57s.59,2.23.59,3.63ZM78.52,19.69c.77,0,1.44-.12,2.03-.36s1.08-.6,1.48-1.07c.4-.48.71-1.07.92-1.77.21-.7.31-1.51.31-2.44s-.1-1.71-.31-2.41c-.21-.69-.52-1.28-.92-1.74-.4-.47-.9-.82-1.5-1.04s-1.26-.34-2.02-.34-1.42.11-2.02.34-1.09.57-1.5,1.03c-.4.46-.72,1.04-.94,1.74-.22.7-.34,1.51-.34,2.42s.11,1.76.33,2.46c.22.7.53,1.29.94,1.76.41.47.92.82,1.52,1.06.6.24,1.27.36,2,.36Z"/>
    <path d="M101.95,6c0,.46-.01.99-.01,1.58,0,.59-.02,1.22-.04,1.9-.01.67-.02,1.39-.02,2.16v7.05c0,1.28.01,2.47.02,3.56h-2.29c-.18-.33-.45-.79-.84-1.37-.38-.59-.83-1.26-1.35-2.01-.52-.75-1.08-1.54-1.67-2.38-.59-.84-1.2-1.7-1.82-2.57s-1.22-1.71-1.78-2.5c-.3-.47-.59-.94-.88-1.41-.28-.48-.53-.94-.77-1.39-.06-.13-.13-.25-.19-.37h-.06c0,.23.03.44.04.66.03.56.05,1.1.07,1.63.02.53.04,1.04.06,1.55,0,1.3,0,2.5.01,3.6,0,1.09,0,2.07,0,2.91-.01.85-.01,1.57,0,2.18,0,.61.02,1.1.03,1.47h-2.1c.01-1.05.02-2.24.03-3.55.01-1.32.01-2.84.01-4.57v-3.22c0-.99,0-1.9-.01-2.72-.01-.83-.02-1.56-.03-2.19h2.71c.13.23.34.56.64.98.29.43.64.93,1.05,1.5.4.57.83,1.19,1.29,1.86.45.68.93,1.36,1.44,2.06.5.7,1,1.41,1.49,2.12.5.7.97,1.37,1.41,1.99.25.39.51.82.77,1.3.27.48.52.95.76,1.42.05.09.09.19.13.28l.07-.03c-.01-.17-.02-.34-.03-.51-.03-.54-.06-1.06-.07-1.57-.02-.51-.02-1-.02-1.47,0-.8-.01-1.59-.01-2.38-.01-.79-.02-1.56-.03-2.33,0-.76-.01-1.48-.02-2.15,0-.68-.02-1.27-.05-1.79-.03-.52-.05-.95-.07-1.28h2.13Z"/>
  </g>
  <path d="M106.58,5.99v16.26h16.26V5.99h-16.26ZM115.3,19.16v-5.04l-4.11,5.04v-10.08l4.11,5.04v-5.04l4.11,5.04-4.11,5.04Z"/>
</svg>